<?xml version="1.0" encoding="UTF-8" standalone="no"?>
<svg
   xmlns:dc="http://purl.org/dc/elements/1.1/"
   xmlns:cc="http://creativecommons.org/ns#"
   xmlns:rdf="http://www.w3.org/1999/02/22-rdf-syntax-ns#"
   xmlns:svg="http://www.w3.org/2000/svg"
   xmlns="http://www.w3.org/2000/svg"
   viewBox="0 0 302.35999 302.35999"
   height="302.35999"
   width="302.35999"
   xml:space="preserve"
   id="svg2"
   version="1.1"><metadata
     id="metadata8"><rdf:RDF><cc:Work
         rdf:about=""><dc:format>image/svg+xml</dc:format><dc:type
           rdf:resource="http://purl.org/dc/dcmitype/StillImage" /></cc:Work></rdf:RDF></metadata><defs
     id="defs6" /><g
     transform="matrix(1.3333333,0,0,-1.3333333,0,302.36)"
     id="g10"><g
       transform="scale(0.1)"
       id="g12"><path
         id="path14"
         style="fill:#ffffff;fill-opacity:1;fill-rule:nonzero;stroke:none"
         d="m 2267.71,1133.85 c 0,626.21 -507.65,1133.86 -1133.86,1133.86 C 507.637,2267.71 -0.0078125,1760.06 -0.0078125,1133.85 -0.0078125,507.641 507.637,-0.0117188 1133.85,-0.0117188 1760.06,-0.0117188 2267.71,507.641 2267.71,1133.85 v 0" /><path
         id="path16"
         style="fill:#231f20;fill-opacity:1;fill-rule:nonzero;stroke:none"
         d="m 939.215,155.5 0.078,14.891 50.164,44.961 c 4.055,3.57 6.809,6.976 8.281,10.226 1.465,3.254 2.2,6.512 2.2,9.774 0,4.097 -0.911,7.796 -2.727,11.07 -1.805,3.277 -4.316,5.887 -7.52,7.797 -3.191,1.929 -6.875,2.883 -11.035,2.883 -4.265,0 -8.066,-0.993 -11.406,-2.993 -3.328,-2.007 -5.926,-4.66 -7.793,-7.961 -1.863,-3.308 -2.773,-6.886 -2.723,-10.726 h -17.121 c 0,7.476 1.692,14.019 5.078,19.637 3.387,5.632 8.047,10.031 13.965,13.211 5.918,3.171 12.696,4.75 20.324,4.75 7.247,0 13.758,-1.641 19.512,-4.918 5.758,-3.274 10.308,-7.774 13.638,-13.481 3.33,-5.699 5,-12.211 5,-19.519 0,-5.274 -0.69,-9.75 -2.08,-13.442 -1.38,-3.68 -3.46,-7.078 -6.24,-10.238 -2.77,-3.141 -6.24,-6.551 -10.4,-10.231 l -38.719,-34.562 -1.836,4.793 h 59.275 V 155.5 h -77.915" /><path
         id="path18"
         style="fill:#231f20;fill-opacity:1;fill-rule:nonzero;stroke:none"
         d="m 1080.2,169.031 c 4.27,0 8.14,1.02 11.64,3.071 3.5,2.058 6.28,4.828 8.36,8.32 2.08,3.5 3.12,7.406 3.12,11.719 v 41.929 c 0,4.258 -1.04,8.141 -3.12,11.641 -2.08,3.48 -4.86,6.258 -8.36,8.32 -3.5,2.047 -7.37,3.071 -11.64,3.071 -4.27,0 -8.14,-1.024 -11.64,-3.071 -3.49,-2.062 -6.28,-4.84 -8.36,-8.32 -2.08,-3.5 -3.12,-7.383 -3.12,-11.641 v -41.929 c 0,-4.313 1.04,-8.219 3.12,-11.719 2.08,-3.492 4.87,-6.262 8.36,-8.32 3.5,-2.051 7.37,-3.071 11.64,-3.071 z m 0,-16.011 c -7.84,0 -14.78,1.718 -20.8,5.171 -6.03,3.438 -10.75,8.161 -14.2,14.2 -3.44,6.019 -5.16,12.961 -5.16,20.8 v 39.68 c 0,7.84 1.72,14.77 5.16,20.801 3.45,6.019 8.17,10.758 14.2,14.199 6.02,3.43 12.96,5.149 20.8,5.149 7.84,0 14.77,-1.719 20.8,-5.149 6.03,-3.441 10.76,-8.18 14.2,-14.199 3.45,-6.031 5.17,-12.961 5.17,-20.801 v -39.68 c 0,-7.839 -1.72,-14.781 -5.17,-20.8 -3.44,-6.039 -8.17,-10.762 -14.2,-14.2 -6.03,-3.453 -12.96,-5.171 -20.8,-5.171" /><path
         id="path20"
         style="fill:#231f20;fill-opacity:1;fill-rule:nonzero;stroke:none"
         d="m 1142.34,155.5 0.08,14.891 50.16,44.961 c 4.06,3.57 6.81,6.976 8.28,10.226 1.47,3.254 2.2,6.512 2.2,9.774 0,4.097 -0.91,7.796 -2.72,11.07 -1.81,3.277 -4.32,5.887 -7.52,7.797 -3.2,1.929 -6.88,2.883 -11.04,2.883 -4.27,0 -8.06,-0.993 -11.41,-2.993 -3.32,-2.007 -5.92,-4.66 -7.79,-7.961 -1.86,-3.308 -2.77,-6.886 -2.72,-10.726 h -17.12 c 0,7.476 1.69,14.019 5.08,19.637 3.39,5.632 8.04,10.031 13.96,13.211 5.92,3.171 12.7,4.75 20.32,4.75 7.25,0 13.76,-1.641 19.52,-4.918 5.76,-3.274 10.31,-7.774 13.64,-13.481 3.33,-5.699 5,-12.211 5,-19.519 0,-5.274 -0.7,-9.75 -2.08,-13.442 -1.39,-3.68 -3.47,-7.078 -6.24,-10.238 -2.78,-3.141 -6.24,-6.551 -10.4,-10.231 l -38.72,-34.562 -1.84,4.793 h 59.28 V 155.5 h -77.92" /><path
         id="path22"
         style="fill:#231f20;fill-opacity:1;fill-rule:nonzero;stroke:none"
         d="M 1292.08,155.422 V 175.5 h -52 v 15.84 l 37.44,79.281 h 19.12 L 1259.2,191.34 h 32.88 v 31.199 h 16.97 V 191.34 h 11.43 V 175.5 h -11.43 v -20.078 h -16.97" /><path
         id="path24"
         style="fill:#231f20;fill-opacity:1;fill-rule:nonzero;stroke:none"
         d="m 729.516,1848.11 v 100.8 h 14.629 v -43.46 h 50.402 v 43.46 h 14.695 v -100.8 h -14.695 v 43.53 h -50.402 v -43.53 h -14.629" /><path
         id="path26"
         style="fill:#231f20;fill-opacity:1;fill-rule:nonzero;stroke:none"
         d="m 875.035,1859.94 c 7.149,-0.09 13.086,1.48 17.82,4.72 4.739,3.25 8.293,7.78 10.676,13.59 2.379,5.81 3.563,12.55 3.563,20.26 0,7.7 -1.184,14.44 -3.563,20.2 -2.383,5.76 -5.937,10.25 -10.676,13.47 -4.734,3.21 -10.671,4.86 -17.82,4.91 -7.14,0.08 -13.078,-1.48 -17.812,-4.7 -4.739,-3.21 -8.293,-7.75 -10.676,-13.58 -2.383,-5.84 -3.594,-12.6 -3.641,-20.3 -0.039,-7.71 1.121,-14.43 3.504,-20.19 2.375,-5.77 5.957,-10.26 10.742,-13.48 4.786,-3.22 10.743,-4.86 17.883,-4.9 z m 0,-13.93 c -10.082,0 -18.664,2.21 -25.754,6.61 -7.097,4.42 -12.519,10.56 -16.277,18.45 -3.762,7.89 -5.637,17.03 -5.637,27.44 0,10.41 1.875,19.55 5.637,27.44 3.758,7.88 9.18,14.03 16.277,18.45 7.09,4.4 15.672,6.61 25.754,6.61 10.039,0 18.613,-2.21 25.731,-6.61 7.109,-4.42 12.539,-10.57 16.269,-18.45 3.742,-7.89 5.606,-17.03 5.606,-27.44 0,-10.41 -1.864,-19.55 -5.606,-27.44 -3.73,-7.89 -9.16,-14.03 -16.269,-18.45 -7.118,-4.4 -15.692,-6.61 -25.731,-6.61" /><path
         id="path28"
         style="fill:#231f20;fill-opacity:1;fill-rule:nonzero;stroke:none"
         d="m 940.777,1848.11 v 100.8 H 954 l 36.543,-75.81 36.327,75.81 h 13.37 v -100.73 h -13.86 v 68.95 l -32.548,-69.02 h -6.648 l -32.618,69.02 v -69.02 h -13.789" /><path
         id="path30"
         style="fill:#231f20;fill-opacity:1;fill-rule:nonzero;stroke:none"
         d="m 1142.75,1848.11 h -14.85 v 74.97 l -49.62,-74.97 h -14.84 v 100.8 h 14.84 v -74.9 l 49.62,74.9 h 14.85 v -100.8" /><path
         id="path32"
         style="fill:#231f20;fill-opacity:1;fill-rule:nonzero;stroke:none"
         d="m 1165.95,1848.11 v 100.8 h 14.63 v -43.46 h 50.4 v 43.46 h 14.7 v -100.8 h -14.7 v 43.53 h -50.4 v -43.53 h -14.63" /><path
         id="path34"
         style="fill:#231f20;fill-opacity:1;fill-rule:nonzero;stroke:none"
         d="m 1278.69,1870.86 v 13.73 h 52.63 v -13.73 z m -17.02,-22.75 32.76,100.8 h 21.07 l 32.77,-100.8 h -15.2 l -30.17,91.98 h 3.78 l -29.82,-91.98 h -15.19" /><path
         id="path36"
         style="fill:#231f20;fill-opacity:1;fill-rule:nonzero;stroke:none"
         d="m 1364.26,1848.11 v 100.8 h 14.63 v -43.46 h 50.4 v 43.46 h 14.7 v -100.8 h -14.7 v 43.53 h -50.4 v -43.53 h -14.63" /><path
         id="path38"
         style="fill:#231f20;fill-opacity:1;fill-rule:nonzero;stroke:none"
         d="m 1492.82,1848.11 v 87.01 h -33.54 v 13.79 h 81.69 v -13.79 h -33.52 v -87.01 h -14.63" /><path
         id="path40"
         style="fill:#231f20;fill-opacity:1;fill-rule:nonzero;stroke:none"
         d="m 579.273,1688.11 v 100.8 h 80.145 v -100.8 h -14.629 v 87.01 h -50.887 v -87.01 h -14.629" /><path
         id="path42"
         style="fill:#231f20;fill-opacity:1;fill-rule:nonzero;stroke:none"
         d="m 697.242,1738.16 h 25.543 c 0.93,0 1.977,0.05 3.117,0.14 1.145,0.09 2.227,0.26 3.254,0.49 2.989,0.7 5.391,2 7.215,3.88 1.817,1.9 3.125,4.07 3.914,6.55 0.793,2.48 1.195,4.94 1.195,7.42 0,2.48 -0.402,4.94 -1.195,7.39 -0.789,2.45 -2.097,4.62 -3.914,6.5 -1.824,1.9 -4.226,3.18 -7.215,3.89 -1.027,0.28 -2.109,0.47 -3.254,0.56 -1.14,0.09 -2.187,0.14 -3.117,0.14 h -25.543 z m -14.629,-50.05 v 100.8 h 40.731 c 0.984,0 2.199,-0.04 3.644,-0.11 1.446,-0.07 2.821,-0.22 4.129,-0.44 5.598,-0.9 10.274,-2.81 14.035,-5.75 3.758,-2.94 6.571,-6.65 8.438,-11.13 1.863,-4.48 2.801,-9.43 2.801,-14.84 0,-5.46 -0.938,-10.43 -2.801,-14.91 -1.867,-4.48 -4.68,-8.19 -8.438,-11.13 -3.761,-2.94 -8.437,-4.85 -14.035,-5.74 -1.308,-0.19 -2.695,-0.32 -4.168,-0.42 -1.465,-0.09 -2.668,-0.14 -3.605,-0.14 h -26.102 v -36.19 h -14.629" /><path
         id="path44"
         style="fill:#231f20;fill-opacity:1;fill-rule:nonzero;stroke:none"
         d="m 773.063,1688.11 v 100.8 h 64.39 v -13.79 h -49.762 v -28.28 h 41.368 v -13.79 h -41.368 v -31.15 h 49.762 v -13.79 h -64.39" /><path
         id="path46"
         style="fill:#231f20;fill-opacity:1;fill-rule:nonzero;stroke:none"
         d="m 855.59,1688.11 v 100.8 h 13.223 l 36.542,-75.81 36.329,75.81 h 13.371 v -100.73 h -13.86 v 68.95 l -32.547,-69.02 h -6.652 l -32.617,69.02 v -69.02 H 855.59" /><path
         id="path48"
         style="fill:#231f20;fill-opacity:1;fill-rule:nonzero;stroke:none"
         d="m 1057.56,1688.11 h -14.84 v 74.97 l -49.63,-74.97 h -14.832 v 100.8 h 14.832 v -74.9 l 49.63,74.9 h 14.84 v -100.8" /><path
         id="path50"
         style="fill:#231f20;fill-opacity:1;fill-rule:nonzero;stroke:none"
         d="m 1160.07,1688.11 h -14.84 v 74.97 l -49.63,-74.97 h -14.83 v 100.8 h 14.83 v -74.9 l 49.63,74.9 h 14.84 v -100.8" /><path
         id="path52"
         style="fill:#231f20;fill-opacity:1;fill-rule:nonzero;stroke:none"
         d="m 1259.05,1686.01 c -7.89,0 -14.86,1.62 -20.9,4.87 -6.05,3.24 -10.76,7.79 -14.17,13.65 -3.41,5.86 -5.11,12.75 -5.11,20.68 v 63.63 l 14.84,0.07 v -62.93 c 0,-4.3 0.72,-8.07 2.16,-11.34 1.45,-3.27 3.39,-5.99 5.81,-8.19 2.44,-2.2 5.15,-3.85 8.16,-4.97 3.02,-1.12 6.08,-1.68 9.21,-1.68 3.17,0 6.26,0.58 9.27,1.72 3.01,1.14 5.73,2.81 8.16,5 2.42,2.19 4.34,4.92 5.77,8.19 1.43,3.26 2.14,7.02 2.14,11.27 v 62.93 h 14.83 v -63.7 c 0,-7.89 -1.7,-14.76 -5.1,-20.66 -3.41,-5.87 -8.14,-10.43 -14.17,-13.67 -6.05,-3.25 -13.02,-4.87 -20.9,-4.87" /><path
         id="path54"
         style="fill:#231f20;fill-opacity:1;fill-rule:nonzero;stroke:none"
         d="m 1381.81,1688.11 -19.88,41.02 14.77,3.78 21.84,-44.8 z m -44.31,50.05 h 25.55 c 0.93,0 1.97,0.05 3.12,0.14 1.14,0.09 2.22,0.26 3.25,0.49 2.99,0.7 5.39,2 7.22,3.88 1.81,1.9 3.12,4.07 3.91,6.55 0.79,2.48 1.19,4.94 1.19,7.42 0,2.48 -0.4,4.94 -1.19,7.39 -0.79,2.45 -2.1,4.62 -3.91,6.5 -1.83,1.9 -4.23,3.18 -7.22,3.89 -1.03,0.28 -2.11,0.47 -3.25,0.56 -1.15,0.09 -2.19,0.14 -3.12,0.14 h -25.55 z m -14.63,-50.05 v 100.8 h 40.74 c 0.98,0 2.2,-0.04 3.64,-0.11 1.45,-0.07 2.82,-0.22 4.13,-0.44 5.6,-0.9 10.27,-2.81 14.03,-5.75 3.76,-2.94 6.58,-6.65 8.44,-11.13 1.87,-4.48 2.8,-9.43 2.8,-14.84 0,-8.02 -2.06,-14.94 -6.16,-20.76 -4.11,-5.81 -10.27,-9.43 -18.48,-10.88 l -5.95,-0.7 h -28.56 v -36.19 h -14.63" /><path
         id="path56"
         style="fill:#231f20;fill-opacity:1;fill-rule:nonzero;stroke:none"
         d="m 1432.36,1702.04 h 26.32 c 3.32,0 6.29,0.63 8.92,1.89 2.64,1.26 4.72,3.07 6.23,5.42 1.52,2.36 2.28,5.18 2.28,8.44 0,3.03 -0.67,5.78 -1.99,8.22 -1.33,2.45 -3.25,4.4 -5.75,5.81 -2.5,1.43 -5.42,2.14 -8.79,2.14 h -27.22 z m 0,45.71 h 24.57 c 2.7,0 5.14,0.55 7.31,1.65 2.17,1.09 3.9,2.67 5.19,4.76 1.28,2.07 1.92,4.59 1.92,7.52 0,3.92 -1.31,7.14 -3.92,9.66 -2.61,2.52 -6.12,3.78 -10.5,3.78 h -24.57 z m -14.84,-59.64 v 100.8 h 39.62 c 6.39,0 11.76,-1.31 16.1,-3.91 4.34,-2.62 7.6,-5.99 9.8,-10.12 2.19,-4.13 3.29,-8.49 3.29,-13.06 0,-5.55 -1.36,-10.31 -4.1,-14.28 -2.72,-3.97 -6.41,-6.68 -11.02,-8.12 l -0.14,3.43 c 6.43,-1.58 11.39,-4.68 14.84,-9.27 3.45,-4.6 5.18,-9.95 5.18,-16.06 0,-5.93 -1.18,-11.09 -3.54,-15.48 -2.35,-4.39 -5.78,-7.81 -10.29,-10.26 -4.5,-2.45 -9.95,-3.67 -16.34,-3.67 h -43.4" /><path
         id="path58"
         style="fill:#231f20;fill-opacity:1;fill-rule:nonzero;stroke:none"
         d="m 1517.95,1710.86 v 13.73 h 52.64 v -13.73 z m -17.01,-22.75 32.76,100.8 h 21.07 l 32.76,-100.8 h -15.19 l -30.17,91.98 h 3.78 l -29.82,-91.98 h -15.19" /><path
         id="path60"
         style="fill:#231f20;fill-opacity:1;fill-rule:nonzero;stroke:none"
         d="m 1603.54,1688.11 v 100.8 h 14.83 l 49.63,-74.9 v 74.9 h 14.85 v -100.8 H 1668 l -49.63,74.97 v -74.97 h -14.83" /><path
         id="path62"
         style="fill:#231f20;fill-opacity:1;fill-rule:nonzero;stroke:none"
         d="m 1063.03,520.512 c 14.83,-1.641 32.94,-1.641 70.82,-1.641 36.23,0 54.35,0 70.82,1.641 167.98,14.828 303.03,148.226 317.85,317.859 1.65,14.82 1.65,32.938 1.65,70.82 V 1470.79 H 1321.6 V 909.191 c 0,-11.531 0,-16.472 0,-21.41 -4.94,-90.582 -77.41,-163.051 -167.99,-167.992 -4.94,0 -9.88,0 -21.41,0 -11.53,0 -16.47,0 -21.41,0 -90.58,4.941 -163.04,77.41 -167.981,167.992 0,4.938 0,9.879 0,21.41 V 1470.79 H 743.527 V 909.191 c 0,-36.242 0,-54.351 1.649,-70.82 C 760,670.379 893.398,535.34 1063.03,520.512" /><path
         id="path64"
         style="fill:#231f20;fill-opacity:1;fill-rule:nonzero;stroke:none"
         d="m 1398.5,214.121 c 399.74,114.82 692.21,483.078 692.23,919.729 0,295.39 -133.91,559.53 -344.27,735.03 -3,2.51 -7.47,2.11 -9.98,-0.9 -2.5,-3 -2.1,-7.47 0.9,-9.98 207.28,-172.95 339.17,-433.1 339.18,-724.15 0.01,-430.178 -288.18,-792.991 -681.97,-906.112 -3.76,-1.078 -5.94,-5 -4.86,-8.769 1.08,-3.758 5.01,-5.93 8.77,-4.848 v 0" /><path
         id="path66"
         style="fill:#231f20;fill-opacity:1;fill-rule:nonzero;stroke:none"
         d="M 521.238,1868.88 C 312.973,1695.13 179.645,1434.49 177.012,1142.66 c -0.028,-2.89 -0.039,-5.79 -0.039,-8.68 0.031,-433.46 293.066,-803.8 692.304,-919.531 3.762,-1.09 7.692,1.082 8.782,4.84 1.089,3.762 -1.075,7.691 -4.836,8.781 -393.282,113.969 -682.106,478.969 -682.078,905.91 0,2.85 0.015,5.7 0.039,8.55 2.597,287.54 133.921,544.24 339.132,715.47 3.004,2.51 3.411,6.98 0.903,9.98 -2.508,3.01 -6.977,3.41 -9.981,0.9 v 0" /></g></g></svg>